<?xml version="1.0" encoding="utf-8"?>
<!-- Generator: Adobe Illustrator 24.1.1, SVG Export Plug-In . SVG Version: 6.00 Build 0)  -->
<svg version="1.1" baseProfile="basic" id="Layer_1"
	 xmlns="http://www.w3.org/2000/svg" xmlns:xlink="http://www.w3.org/1999/xlink" x="0px" y="0px" viewBox="0 0 388.91 203.67"
	 xml:space="preserve">
<g>
	<path fill="#213349" d="M27.66,187.04c-3.31,0-5.79-0.66-7.38-1.93c-1.6-1.3-2.51-2.75-2.78-4.36c-0.11-0.23-0.17-0.46-0.17-0.66
		c0-0.17,0-0.39,0-0.64c0-1.21,0.31-2.29,0.92-3.13c0.63-0.86,1.42-1.29,2.4-1.29c0.12,0,0.34,0.02,0.65,0.07
		c0.3,0.07,0.57,0.18,0.83,0.3c0.37,0.61,0.74,1.11,1.1,1.56c0.37,0.43,0.68,0.9,0.92,1.39c0.99,1.11,2.06,1.87,3.23,2.32
		c1.17,0.42,2.74,0.64,4.7,0.64c5.05,0,8.99-2.13,11.82-6.36c2.82-4.25,4.24-10.36,4.24-18.36V76.69l-5.91,5.73l-2.95-2.95
		L58.3,56.21l2.77,2.95l-4.25,5.91v92.99c0,7.13-2.06,13.11-6.17,17.9c-4.13,4.79-8.71,8.04-13.74,9.77
		c-1.24,0.49-2.44,0.87-3.61,1.11c-1.17,0.24-2.3,0.38-3.4,0.38c-0.25,0-0.45,0-0.56,0c-0.11,0-0.31,0-0.55,0
		c-0.11-0.13-0.28-0.18-0.46-0.18c-0.19,0-0.34,0-0.46,0H27.66z M43.72,31.68c0-2.72,0.76-4.75,2.3-6.11
		c1.54-1.34,3.28-2.02,5.25-2.02c2.1,0,4.03,0.7,5.82,2.12c1.77,1.41,2.66,3.48,2.66,6.18c-0.36,2.96-1.33,5.04-2.86,6.28
		c-1.55,1.23-3.23,1.84-5.07,1.84c-1.98,0-3.81-0.66-5.53-1.93c-1.72-1.31-2.65-2.98-2.78-5.09c0-0.12,0-0.21,0-0.28
		c0-0.06,0.06-0.14,0.19-0.27c0-0.12,0-0.21,0-0.28c0-0.06,0-0.16,0-0.28V31.68z"/>
	<path fill="#213349" d="M80.06,73.76l-7.2,8.66l-1.47-4.25l18.83-23.24l2.95,2.77l-4.42,5.9v65.32c0,3.08,0.73,5.17,2.2,6.28
		c1.48,1.12,3.64,1.97,6.46,2.6v4.23H71.39v-4.43h8.67V73.76z M74.16,30.2c0.37-2.34,1.43-4.1,3.23-5.26
		c1.78-1.18,3.65-1.76,5.62-1.76c2.22,0,4.21,0.62,6,1.85c1.8,1.23,2.68,3.03,2.68,5.36c0,2.82-0.89,4.96-2.68,6.45
		c-1.79,1.47-3.78,2.2-6,2.2c-2.21,0-4.23-0.7-6.08-2.11c-1.85-1.43-2.77-3.6-2.77-6.55V30.2z"/>
	<path fill="#213349" d="M134.59,66.27c5.35-1.79,10.35-2.69,15.03-2.69c9.1,0,16.82,2.59,23.16,7.76
		c6.34,5.16,10.85,10.88,13.56,17.16c0.86,1.97,1.5,3.94,1.94,5.9c0.43,1.97,0.65,3.81,0.65,5.53c0,0.26,0,0.53,0,0.85
		c0,0.31,0,0.58,0,0.81c0,12.93-4.19,22.98-12.56,30.18c-8.36,7.2-17.59,11.42-27.67,12.65c-0.87,0.12-1.79,0.2-2.77,0.28
		c-0.99,0.05-1.91,0.09-2.76,0.09c-4.81,0-9.39-0.68-13.75-2.02c-4.36-1.36-8.21-3.46-11.52-6.28v5.53h-16.06v-4.43h7.19V27.25
		l-8.67,8.66l-2.95-2.96L119.18,9.7l2.94,2.96l-4.23,5.91v56.64C123.67,71.03,129.24,68.04,134.59,66.27z M117.89,82.41v40.77
		c1.96,2.58,4,4.78,6.08,6.57c2.09,1.78,4.19,3.28,6.28,4.5c2.72,1.62,5.44,2.8,8.22,3.6c2.76,0.8,5.44,1.2,8.02,1.2
		c8.35,0,15.71-3.05,22.04-9.23c6.34-6.15,10.19-12.84,11.54-20.09c0.25-0.99,0.4-1.91,0.46-2.78c0.06-0.85,0.1-1.72,0.1-2.58
		c0-0.38,0-0.74,0-1.1c0-0.39-0.06-0.74-0.19-1.11c0-0.24-0.03-0.57-0.09-0.91c-0.07-0.39-0.1-0.76-0.1-1.13
		c-0.49-9.84-4.18-17.4-11.06-22.68c-6.89-5.29-14.51-7.93-22.88-7.93c-0.26,0-0.5,0-0.75,0c-0.25,0-0.55,0-0.92,0
		c-4.92,0.24-9.76,1.43-14.48,3.59c-4.74,2.16-8.83,5.31-12.27,9.5V82.41z"/>
	<path fill="#213349" d="M206.44,73.76l-7.19,8.66l-1.46-4.25l18.81-23.24l2.96,2.77l-4.44,5.9v65.32c0,3.08,0.75,5.17,2.22,6.28
		c1.46,1.12,3.63,1.97,6.46,2.6v4.23h-26.01v-4.43h8.66V73.76z M200.55,30.2c0.37-2.34,1.44-4.1,3.22-5.26
		c1.79-1.18,3.67-1.76,5.64-1.76c2.21,0,4.2,0.62,6,1.85c1.79,1.23,2.68,3.03,2.68,5.36c0,2.82-0.89,4.96-2.68,6.45
		c-1.79,1.47-3.79,2.2-6,2.2c-2.22,0-4.25-0.7-6.09-2.11c-1.85-1.43-2.77-3.6-2.77-6.55V30.2z"/>
	<path fill="#213349" d="M356.07,83.89v47.98c0,2.93,1.21,4.66,3.6,5.15c2.42,0.5,5.09,0.76,8.04,0.76v4.23h-18.82v-2.96
		c-3.82,2.11-7.46,3.6-10.99,4.54c-3.5,0.91-6.73,1.37-9.68,1.37c-8.24-0.13-14.54-2.86-18.9-8.22c-4.37-5.36-6.55-11.42-6.55-18.17
		c0-0.25,0-0.5,0-0.76c0-0.22,0-0.48,0-0.72c0.37-6.76,3.15-12.99,8.39-18.65c5.23-5.65,13.19-8.48,23.89-8.48
		c1.85,0,3.81,0.09,5.91,0.27c2.08,0.2,4.24,0.53,6.45,1.02c0.26-0.85,0.4-1.7,0.46-2.49c0.07-0.8,0.1-1.57,0.1-2.31
		c0-5.65-1.65-10.6-4.98-14.85c-3.31-4.25-7.18-6.36-11.61-6.36c-5.18,0-9.58,2.06-13.22,6.18c-3.62,4.13-6.11,8.64-7.46,13.56
		c-0.38,1.35-0.65,2.68-0.84,3.97c-0.18,1.28-0.27,2.56-0.27,3.78l-4.43-0.18V57.69h4.43V70.8c0,0.11,0.05,0.11,0.18,0
		c0.86-0.5,1.7-1.16,2.5-1.95c0.79-0.81,1.68-1.57,2.66-2.31c1.85-1.47,4.15-2.8,6.93-3.96c2.77-1.16,6.43-1.77,10.97-1.77
		c5.9,0,10.95,1.83,15.13,5.45c4.18,3.62,6.83,7.66,7.92,12.09c0.14,0.62,0.22,1.23,0.28,1.83c0.05,0.62,0.1,1.23,0.1,1.86
		c0,0.12,0,0.27,0,0.45c0,0.19,0,0.35,0,0.47c0,0.24-0.04,0.43-0.1,0.55c-0.06,0.14-0.1,0.3-0.1,0.55V83.89z M341.69,97.08
		c-2.96-1.3-6.03-2-9.21-2.12c-0.13,0-0.29,0-0.47,0c-0.17,0-0.41,0-0.63,0c-5.43,0.24-10.41,2.28-14.97,6.08
		c-4.55,3.83-6.81,9.31-6.81,16.42c0.48,7.28,2.84,12.7,7.01,16.33c4.19,3.63,8.92,5.44,14.2,5.44c0.87,0,1.79-0.05,2.77-0.19
		c0.98-0.11,1.91-0.3,2.77-0.54c2.21-0.49,4.4-1.27,6.54-2.31c2.16-1.05,4.15-2.43,6.01-4.16V102.7
		C347.04,100.23,344.64,98.35,341.69,97.08z"/>
	<g>
		<polyline fill="#213349" points="249.95,14.61 254.37,8.96 251.41,6.03 231.12,30.54 233.9,33.29 241.29,26.14 241.32,62.91 
			250,62.9 249.95,14.61 		"/>
		<path fill="#213349" d="M292.25,136.67c-2.1-0.74-4.13-2.22-6.08-4.44c-0.25-0.24-0.47-0.51-0.65-0.84
			c-0.19-0.3-0.4-0.64-0.64-1.01l-28.96-36.35l27.48-26.21h8.68v-4.23h-27.5v4.23h8.68L250,91.08V62.86h-8.68v74.73h-8.67v4.43
			h28.97v-4.23c-0.12,0-0.22,0-0.27,0c-0.07,0-0.16,0-0.29,0c-2.7,0-5.22-0.62-7.58-1.85c-2.33-1.24-3.49-4.05-3.49-8.49V102.7
			l31.91,39.31h17.52v-4.23C296.74,137.78,294.33,137.4,292.25,136.67z"/>
	</g>
</g>
<text transform="matrix(1 0 0 1 -60.9467 214.2793)" display="none" font-family="'Caveat-Regular'" font-size="50px">HR &amp; Payroll solutions</text>
</svg>
