<?xml version="1.0" encoding="utf-8"?>
<!-- Generator: Adobe Illustrator 24.1.1, SVG Export Plug-In . SVG Version: 6.00 Build 0)  -->
<svg version="1.1" baseProfile="basic" id="Layer_1"
	 xmlns="http://www.w3.org/2000/svg" xmlns:xlink="http://www.w3.org/1999/xlink" x="0px" y="0px" viewBox="0 0 501.7 163.33"
	 xml:space="preserve">
<g>
	<path fill="#718D33" d="M28.56,75.23c3.18-7.18,7.1-12.52,11.77-16.04c4.66-3.51,9.17-5.27,13.54-5.27c2.89,0,5.51,0.78,7.88,2.33
		c2.37,1.55,4.25,3.9,5.66,7.05c1.4,3.15,2.11,7.16,2.11,12.04c0,5.55-0.78,10.75-2.33,15.6c-1.55,4.85-3.7,9.08-6.44,12.71
		c-2.74,3.63-5.88,6.48-9.44,8.55c-3.55,2.07-7.36,3.11-11.43,3.11c-2.89,0-5.85-0.59-8.88-1.78c4.44-0.89,8.31-2.74,11.6-5.55
		c3.29-2.81,6.05-6.1,8.27-9.88c2.22-3.77,3.89-7.68,5-11.71c1.11-4.03,1.67-7.71,1.67-11.04c0-3.48-0.72-6.34-2.16-8.6
		c-1.44-2.26-3.57-3.39-6.38-3.39c-3.92,0-7.49,1.63-10.71,4.88c-3.22,3.26-5.98,7.81-8.27,13.65c-2.29,5.85-4.05,12.64-5.27,20.37
		c-1.22,7.73-1.83,16.08-1.83,25.03c0,3.85,0.17,7.83,0.5,11.93c0.33,4.11,0.91,8.31,1.72,12.6c-2.52-0.15-4.88-0.55-7.1-1.22
		c-2.22-0.67-4.02-1.91-5.38-3.72c-1.37-1.81-2.05-4.46-2.05-7.94c0-1.85,0.22-4.59,0.67-8.21c0.44-3.63,1.02-7.81,1.72-12.54
		c0.7-4.73,1.39-9.8,2.05-15.21c0.67-5.4,1.22-10.88,1.66-16.43c0.44-5.55,0.67-10.84,0.67-15.87c0-3.92-0.13-7.77-0.39-11.54
		c-0.26-3.77-0.69-7.36-1.28-10.77c5.11,1.48,8.53,4.48,10.27,8.99C27.69,61.88,28.56,67.84,28.56,75.23z"/>
	<path fill="#718D33" d="M123.02,96.44c-1.41,3.85-3.42,7.31-6.05,10.38c-2.63,3.07-5.55,5.48-8.77,7.21
		c-3.22,1.74-6.49,2.61-9.82,2.61c-4.96,0-8.82-1.92-11.6-5.77c-2.77-3.85-4.16-9.25-4.16-16.21c0-5.55,0.79-10.78,2.39-15.71
		c1.59-4.92,3.77-9.23,6.55-12.93c2.77-3.7,6.01-6.6,9.71-8.71c3.7-2.11,7.66-3.16,11.88-3.16c1.26,0,2.59,0.13,4,0.39
		c1.41,0.26,3,0.65,4.77,1.17c-4,0.96-7.68,2.63-11.04,5c-3.37,2.37-6.25,5.22-8.66,8.55c-2.41,3.33-4.27,7.03-5.61,11.1
		c-1.33,4.07-2,8.36-2,12.88c0,4.51,0.78,7.97,2.33,10.38c1.55,2.41,3.77,3.61,6.66,3.61c3.03,0,5.92-1.2,8.66-3.61
		c2.74-2.4,5.22-5.66,7.44-9.77c2.22-4.11,3.96-8.77,5.22-13.99c1.26-5.22,1.89-10.64,1.89-16.26c0-1.92-0.08-3.9-0.22-5.94
		c-0.15-2.04-0.37-3.83-0.67-5.38c0.74-0.07,1.41-0.13,2-0.17c0.59-0.04,1.15-0.05,1.67-0.05c3.03,0,5.35,0.78,6.94,2.33
		c1.59,1.55,2.39,3.81,2.39,6.77c0,1.92-0.26,4.4-0.78,7.44c-0.52,3.04-1.13,6.44-1.83,10.21c-0.7,3.77-1.33,7.73-1.89,11.88
		c-0.56,4.14-0.83,8.25-0.83,12.32c0,3.18,0.26,5.92,0.78,8.21c0.52,2.29,1.4,4.88,2.66,7.77c-4.74-0.96-8.14-3.04-10.21-6.22
		c-2.07-3.18-3.11-7.84-3.11-13.99c0-0.59,0-1.02,0-1.28c0-0.26,0.04-0.54,0.11-0.83L123.02,96.44z"/>
	<path fill="#718D33" d="M166.97,120.52c-0.52-4.29-1.15-8.95-1.89-13.99c-0.74-5.03-1.57-10.14-2.5-15.32
		c-0.93-5.18-1.96-10.19-3.11-15.04c-1.15-4.85-2.37-9.27-3.66-13.26c-1.29-4-2.72-7.25-4.27-9.77c1.04-0.81,2.29-1.5,3.77-2.05
		c1.48-0.55,2.92-0.83,4.33-0.83c2.51,0,4.51,1.17,5.99,3.5c1.48,2.33,2.65,5.44,3.5,9.32c0.85,3.88,1.5,8.23,1.94,13.04
		c0.44,4.81,0.89,9.75,1.33,14.82c0.44,5.07,1,9.86,1.67,14.37L166.97,120.52z M158.54,140.61c0-2.52,0.67-5.62,2-9.32
		c1.33-3.7,3.09-7.81,5.27-12.32c2.18-4.51,4.59-9.29,7.21-14.32c2.63-5.03,5.25-10.12,7.88-15.26c2.63-5.14,5.03-10.17,7.21-15.1
		c2.18-4.92,3.94-9.55,5.27-13.88c1.33-4.33,2-8.19,2-11.6c2.44,1.63,4.2,3.24,5.27,4.83c1.07,1.59,1.61,3.35,1.61,5.27
		c0,2.44-0.78,5.38-2.33,8.82c-1.55,3.44-3.57,7.31-6.05,11.6c-2.48,4.29-5.09,8.92-7.83,13.88c-2.74,4.96-5.35,10.18-7.83,15.65
		c-2.48,5.48-4.5,11.14-6.05,16.98c-1.55,5.84-2.33,11.8-2.33,17.87c0,1.48,0.06,3.03,0.17,4.66c0.11,1.63,0.31,3.25,0.61,4.88
		c-2.59-0.37-4.68-1-6.27-1.89c-1.59-0.89-2.81-1.93-3.66-3.11c-0.85-1.18-1.42-2.46-1.72-3.83
		C158.68,143.07,158.54,141.8,158.54,140.61z"/>
	<path fill="#718D33" d="M230.24,117.53c-6.66,0-11.73-1.33-15.21-4s-5.22-5.88-5.22-9.66c0-3.18,0.89-5.75,2.66-7.71
		c1.78-1.96,3.92-2.94,6.44-2.94c0.59,0,1.2,0.06,1.83,0.17c0.63,0.11,1.28,0.35,1.94,0.72c-0.74,0.96-1.33,2.11-1.78,3.44
		c-0.44,1.33-0.67,2.63-0.67,3.88c0,2.59,0.83,4.9,2.5,6.94c1.67,2.04,4.24,3.05,7.71,3.05c1.7,0,3.37-0.33,4.99-1s2.98-1.67,4.05-3
		c1.07-1.33,1.61-3,1.61-5c0-2.22-0.61-4.18-1.83-5.88c-1.22-1.7-2.81-3.29-4.77-4.77c-1.96-1.48-4.01-2.96-6.16-4.44
		c-2.15-1.48-4.2-3.09-6.16-4.83c-1.96-1.74-3.55-3.74-4.77-5.99c-1.22-2.26-1.83-4.9-1.83-7.94c0-3.48,0.91-6.57,2.72-9.27
		c1.81-2.7,4.35-4.83,7.6-6.38c3.26-1.55,7.1-2.33,11.54-2.33c4,0,7.23,0.63,9.71,1.89c2.48,1.26,4.27,2.87,5.38,4.83
		c1.11,1.96,1.66,4.01,1.66,6.16c0,2.59-0.74,4.94-2.22,7.05c-1.48,2.11-3.52,3.16-6.1,3.16c-0.52,0-1.13-0.09-1.83-0.28
		c-0.71-0.18-1.46-0.42-2.28-0.72c1.04-1.26,1.78-2.66,2.22-4.22c0.45-1.55,0.67-2.81,0.67-3.77c0-2.66-0.89-4.66-2.66-5.99
		c-1.78-1.33-3.74-2-5.88-2c-1.55,0-3.09,0.32-4.61,0.94c-1.52,0.63-2.76,1.61-3.72,2.94c-0.96,1.33-1.44,3-1.44,5
		c0,2.37,0.65,4.51,1.94,6.44c1.29,1.92,2.94,3.7,4.94,5.33c2,1.63,4.12,3.24,6.38,4.83c2.26,1.59,4.38,3.24,6.38,4.94
		c2,1.7,3.64,3.59,4.94,5.66c1.29,2.07,1.94,4.4,1.94,6.99c0,3.48-0.96,6.55-2.89,9.21s-4.59,4.76-7.99,6.27
		S234.68,117.53,230.24,117.53z"/>
	<path fill="#718D33" d="M279.42,90.22c0,6.07,0.96,10.86,2.89,14.37c1.92,3.52,4.66,5.27,8.21,5.27c2.81,0,5.77-0.94,8.88-2.83
		c3.11-1.89,5.77-4.57,7.99-8.05c1.18,0.15,2.17,0.43,2.94,0.83c0.78,0.41,1.17,1.13,1.17,2.16c-2.15,3.92-4.63,6.98-7.44,9.16
		c-2.81,2.18-5.64,3.7-8.49,4.55c-2.85,0.85-5.46,1.28-7.83,1.28c-3.48,0-6.77-0.93-9.88-2.78c-3.11-1.85-5.63-4.72-7.55-8.6
		c-1.92-3.88-2.89-8.82-2.89-14.82c0-5.18,0.72-10.14,2.17-14.87c1.44-4.73,3.55-8.95,6.33-12.65c2.78-3.7,6.14-6.62,10.1-8.77
		c3.96-2.15,8.45-3.22,13.49-3.22c3.85,0,6.96,0.68,9.32,2.05c2.37,1.37,4.11,3.15,5.22,5.33c1.11,2.18,1.67,4.46,1.67,6.83
		c0,2.15-0.44,4.2-1.33,6.16c-0.89,1.96-2.15,3.57-3.77,4.83c-1.63,1.26-3.55,1.89-5.77,1.89c-0.74,0-1.57-0.07-2.5-0.22
		c-0.93-0.15-1.79-0.41-2.61-0.78c1.18-1.26,2.2-3.11,3.05-5.55c0.85-2.44,1.28-4.81,1.28-7.1c0-2.07-0.46-3.87-1.39-5.38
		c-0.93-1.52-2.57-2.28-4.94-2.28c-2.81,0-5.35,1-7.6,3c-2.26,2-4.18,4.63-5.77,7.88c-1.59,3.26-2.81,6.83-3.66,10.71
		C279.84,82.5,279.42,86.37,279.42,90.22z"/>
	<path fill="#718D33" d="M366.99,96.44c-1.41,3.85-3.42,7.31-6.05,10.38c-2.63,3.07-5.55,5.48-8.77,7.21
		c-3.22,1.74-6.49,2.61-9.82,2.61c-4.96,0-8.82-1.92-11.6-5.77c-2.78-3.85-4.16-9.25-4.16-16.21c0-5.55,0.79-10.78,2.39-15.71
		c1.59-4.92,3.77-9.23,6.55-12.93c2.78-3.7,6.01-6.6,9.71-8.71c3.7-2.11,7.66-3.16,11.88-3.16c1.26,0,2.59,0.13,4,0.39
		c1.4,0.26,3,0.65,4.77,1.17c-4,0.96-7.68,2.63-11.04,5c-3.37,2.37-6.25,5.22-8.66,8.55c-2.41,3.33-4.27,7.03-5.61,11.1
		c-1.33,4.07-2,8.36-2,12.88c0,4.51,0.78,7.97,2.33,10.38c1.55,2.41,3.77,3.61,6.66,3.61c3.03,0,5.92-1.2,8.66-3.61
		c2.74-2.4,5.22-5.66,7.44-9.77s3.96-8.77,5.22-13.99c1.26-5.22,1.89-10.64,1.89-16.26c0-1.92-0.07-3.9-0.22-5.94
		c-0.15-2.04-0.37-3.83-0.67-5.38c0.74-0.07,1.41-0.13,2-0.17c0.59-0.04,1.15-0.05,1.67-0.05c3.03,0,5.35,0.78,6.94,2.33
		c1.59,1.55,2.39,3.81,2.39,6.77c0,1.92-0.26,4.4-0.78,7.44c-0.52,3.04-1.13,6.44-1.83,10.21c-0.7,3.77-1.33,7.73-1.89,11.88
		c-0.55,4.14-0.83,8.25-0.83,12.32c0,3.18,0.26,5.92,0.78,8.21c0.52,2.29,1.4,4.88,2.66,7.77c-4.74-0.96-8.14-3.04-10.21-6.22
		c-2.07-3.18-3.11-7.84-3.11-13.99c0-0.59,0-1.02,0-1.28c0-0.26,0.04-0.54,0.11-0.83L366.99,96.44z"/>
	<path fill="#718D33" d="M400.18,102.32c0-2.44,0.26-5.92,0.78-10.43c0.52-4.51,1.15-9.62,1.89-15.32
		c0.74-5.7,1.46-11.62,2.16-17.76c0.7-6.14,1.31-12.1,1.83-17.87c0.52-5.77,0.78-10.91,0.78-15.43c0-3.03-0.11-5.68-0.33-7.94
		c-0.22-2.26-0.55-3.94-1-5.05c2.81,1.04,5.05,2.41,6.72,4.11c1.67,1.7,2.85,3.81,3.55,6.33c0.7,2.52,1.05,5.51,1.05,8.99
		c0,3.41-0.33,7.84-1,13.32c-0.67,5.48-1.41,11.62-2.22,18.43c-0.82,6.81-1.55,13.91-2.22,21.31c-0.67,7.4-1,14.73-1,21.98
		c0,1.7,0.05,3.39,0.17,5.05s0.2,3.31,0.28,4.94c-2.74-0.15-4.88-0.59-6.44-1.33c-1.55-0.74-2.68-1.74-3.39-3
		c-0.7-1.26-1.15-2.76-1.33-4.5C400.27,106.41,400.18,104.47,400.18,102.32z"/>
	<path fill="#718D33" d="M451.91,116.97c-3.92,0-7.42-1.15-10.49-3.44c-3.07-2.29-5.48-5.49-7.21-9.6
		c-1.74-4.11-2.61-8.79-2.61-14.04c0-5.48,0.79-10.56,2.39-15.26c1.59-4.7,3.83-8.79,6.72-12.27c2.89-3.48,6.27-6.2,10.16-8.16
		c3.88-1.96,8.08-2.94,12.6-2.94c5.48,0,9.62,1.37,12.43,4.11c2.81,2.74,4.22,6.74,4.22,11.99c0,3.92-1.07,7.46-3.22,10.6
		c-2.15,3.15-5.09,5.61-8.82,7.38c-3.74,1.78-8.01,2.66-12.82,2.66c-2.37,0-4.59-0.13-6.66-0.39c-2.07-0.26-4.07-0.61-5.99-1.05
		l0.33-3.88h4.11c4.29,0,8.03-0.72,11.21-2.17c3.18-1.44,5.66-3.5,7.44-6.16s2.66-5.73,2.66-9.21c0-2.59-0.61-4.59-1.83-5.99
		c-1.22-1.41-2.94-2.11-5.16-2.11c-2.81,0-5.33,1.05-7.55,3.16c-2.22,2.11-4.11,4.85-5.66,8.21c-1.55,3.37-2.74,6.98-3.55,10.82
		c-0.82,3.85-1.22,7.51-1.22,10.99c0,6.51,0.98,11.42,2.94,14.71c1.96,3.29,4.86,4.94,8.71,4.94c7.25,0,13.21-3.62,17.87-10.88
		c2.74,0.44,4.11,1.44,4.11,3c-3.18,5.18-6.79,8.97-10.82,11.38C462.14,115.77,457.38,116.97,451.91,116.97z"/>
</g>
<text transform="matrix(1 0 0 1 51.8477 71.555)" display="none" font-family="'Caveat-Regular'" font-size="50px">HR &amp; Payroll solutions</text>
<g>
	<path fill="#33669A" d="M190.35,145.96l-0.26,0.75c-0.04,0.17-0.11,0.39-0.21,0.67c-0.47,1.43-0.85,2.38-1.15,2.82
		c-0.06,0.09-0.17,0.22-0.33,0.4c-0.56,0.45-1.24,0.67-2.04,0.67c-0.64,0-1.15-0.12-1.53-0.37c-0.39-0.25-0.58-0.56-0.58-0.95
		c0-0.28,0.11-0.78,0.34-1.51c0.22-0.72,0.47-1.41,0.75-2.07c-0.67-0.11-1.01-0.37-1.01-0.76c0-0.28,0.11-0.6,0.32-0.95
		c0.21-0.35,0.47-0.67,0.79-0.95c0.32-0.28,0.63-0.46,0.93-0.55c0.13-0.33,0.38-1.01,0.74-2.06c0.82-2.27,1.48-3.79,1.99-4.56
		c0.21-0.26,0.38-0.46,0.53-0.6c0.45-0.37,1.02-0.56,1.72-0.56c0.43,0,0.81,0.07,1.14,0.2c0.33,0.13,0.59,0.31,0.76,0.55
		c0.18,0.23,0.26,0.5,0.26,0.81c0,0.43-0.62,2.25-1.85,5.45c-0.02,0.05-0.04,0.13-0.08,0.23s-0.08,0.2-0.11,0.28L191.4,143
		l4.76-0.09l0.23-0.72c0.27-0.77,0.55-1.54,0.84-2.29c0.29-0.75,0.54-1.36,0.75-1.82c0.21-0.46,0.42-0.86,0.64-1.21
		c0.22-0.35,0.42-0.61,0.61-0.79c0.45-0.43,1.07-0.65,1.85-0.65c1.34,0,2.01,0.51,2.01,1.54c0,0.96-0.58,2.72-1.75,5.28
		c-0.17,0.38-0.28,0.61-0.31,0.69c0.03-0.01,0.06-0.01,0.09-0.02s0.06-0.01,0.09-0.01c0.47,0,0.84,0.07,1.11,0.22
		c0.27,0.15,0.41,0.35,0.41,0.6c0,0.17-0.12,0.41-0.35,0.72c-0.23,0.31-0.48,0.59-0.74,0.83c-0.26,0.24-0.49,0.41-0.67,0.51
		c-0.18,0.08-0.53,0.17-1.05,0.26l-0.05,0.18c-0.06,0.11-0.15,0.32-0.27,0.63c-0.18,0.44-0.37,0.88-0.56,1.33
		c-0.19,0.44-0.35,0.79-0.47,1.04c-0.13,0.25-0.25,0.45-0.37,0.62c-0.15,0.18-0.31,0.34-0.5,0.47c-0.41,0.28-0.89,0.51-1.42,0.69
		c-0.53,0.18-0.98,0.27-1.33,0.27c-0.41,0-0.72-0.09-0.96-0.26c-0.23-0.17-0.35-0.42-0.35-0.74c0-0.55,0.32-1.68,0.97-3.4
		c0.15-0.38,0.26-0.66,0.32-0.83L190.35,145.96z"/>
	<path fill="#33669A" d="M208.15,138.97l0.35-0.77c-0.26,0.02-0.53,0.06-0.8,0.1c-0.17,0.03-0.41,0.05-0.71,0.05
		c-0.42,0-0.63-0.19-0.63-0.56c0-0.16,0.05-0.35,0.16-0.56c0.11-0.22,0.23-0.38,0.37-0.5c0.3-0.25,0.93-0.46,1.89-0.61
		c0.96-0.16,2.08-0.24,3.37-0.24c0.99,0,1.93,0.12,2.83,0.35c0.9,0.24,1.67,0.56,2.33,0.97c0.65,0.41,1.16,0.89,1.53,1.42
		c0.37,0.54,0.55,1.12,0.55,1.75c0,0.68-0.16,1.3-0.48,1.88c-0.32,0.58-0.77,1.09-1.35,1.52c-0.39,0.29-0.75,0.51-1.08,0.66
		c-0.34,0.15-0.82,0.31-1.45,0.48c0.16,0.27,0.31,0.47,0.43,0.61c0.13,0.14,0.33,0.35,0.63,0.6c0.77,0.62,1.88,1.17,3.33,1.67
		c0.07,0.03,0.16,0.06,0.26,0.09c-0.16,0.65-0.3,1.12-0.44,1.41s-0.35,0.62-0.64,0.97c-0.53,0.62-1.17,0.93-1.92,0.93
		c-0.41,0-0.92-0.13-1.53-0.4s-1.1-0.59-1.49-0.95c-0.3-0.31-0.58-0.64-0.83-0.99c-0.25-0.35-0.51-0.75-0.77-1.19
		c-0.26-0.44-0.48-0.88-0.67-1.3c-0.18-0.42-0.32-0.79-0.41-1.11c-0.02-0.06-0.03-0.15-0.03-0.26c0-0.16,0.05-0.29,0.16-0.38
		s0.29-0.17,0.57-0.25c0.39-0.12,0.71-0.26,0.96-0.4c0.25-0.15,0.56-0.38,0.94-0.69c0.43-0.42,0.77-0.91,1.01-1.46
		s0.37-1.12,0.37-1.69c0-0.68-0.18-1.2-0.53-1.58c-0.35-0.38-0.91-0.64-1.69-0.79c-0.74,2.38-1.47,4.61-2.2,6.71l-0.27,0.87
		c-0.45,1.37-0.82,2.38-1.13,3.04s-0.61,1.12-0.91,1.39c-0.3,0.27-0.77,0.53-1.41,0.79c-0.64,0.26-1.14,0.39-1.5,0.39
		c-0.71,0-1.06-0.35-1.06-1.05c0-0.29,0.1-0.78,0.29-1.49s0.49-1.62,0.9-2.75c0.4-1.13,0.83-2.25,1.27-3.33
		C207.17,141.23,207.65,140.12,208.15,138.97z"/>
	<path fill="#33669A" d="M236.4,149.83l-0.66,0.35c-0.92,0.44-1.67,0.75-2.26,0.93c-0.58,0.18-1.19,0.27-1.82,0.27
		c-0.96,0-1.75-0.25-2.37-0.75c-0.62-0.5-0.93-1.14-0.93-1.91c0-0.64,0.27-1.3,0.8-1.99c0.53-0.69,1.41-1.49,2.63-2.42
		c0.17-0.13,0.29-0.22,0.37-0.27c0.07-0.05,0.15-0.11,0.23-0.17c-0.23-0.96-0.35-1.79-0.35-2.49c0-1.04,0.26-2.02,0.77-2.94
		c0.52-0.92,1.2-1.66,2.06-2.2c0.86-0.55,1.76-0.82,2.72-0.82c0.71,0,1.35,0.11,1.9,0.32c0.55,0.21,0.97,0.52,1.26,0.92
		s0.44,0.86,0.44,1.37c0,0.38-0.09,0.76-0.27,1.14c-0.18,0.38-0.43,0.73-0.74,1.05c-0.54,0.55-1.02,0.99-1.43,1.32
		s-1.25,0.93-2.5,1.8c0.2,0.42,0.45,0.81,0.76,1.18c0.18,0.24,0.39,0.48,0.63,0.73c0.4,0.42,0.92,0.86,1.54,1.33
		c0.14-0.04,0.28-0.12,0.43-0.24c0.07-0.06,0.12-0.09,0.16-0.09c0.08,0,0.15,0.04,0.21,0.11c0.03,0.06,0.05,0.1,0.05,0.11
		c0,0.04-0.04,0.12-0.13,0.22c-0.08,0.07-0.14,0.15-0.18,0.25c0.74,0.49,1.41,0.88,2,1.17c0.48,0.2,0.72,0.37,0.72,0.51
		c0,0.19-0.09,0.44-0.28,0.76c-0.19,0.32-0.42,0.61-0.7,0.87c-0.29,0.26-0.63,0.47-1.03,0.63c-0.39,0.16-0.76,0.24-1.12,0.24
		c-0.38,0-0.72-0.04-1.01-0.13c-0.3-0.08-0.59-0.21-0.88-0.39C237.11,150.42,236.78,150.17,236.4,149.83z M233.23,145.8
		c-0.3,0.33-0.51,0.63-0.63,0.89c-0.12,0.26-0.18,0.56-0.18,0.91c0,0.42,0.16,0.77,0.46,1.06c0.31,0.29,0.7,0.43,1.17,0.43
		c0.4,0,0.82-0.12,1.26-0.35c-0.15-0.14-0.25-0.27-0.32-0.38c-0.16-0.2-0.33-0.41-0.49-0.65c-0.16-0.23-0.46-0.69-0.9-1.35
		c-0.09-0.14-0.17-0.25-0.21-0.32C233.34,145.96,233.29,145.89,233.23,145.8z M235.47,141.51c0.38-0.29,0.71-0.64,1.01-1.05
		c0.29-0.41,0.52-0.85,0.67-1.31c0.15-0.46,0.23-0.94,0.23-1.43c0-0.55-0.14-0.83-0.43-0.83c-0.28,0-0.57,0.15-0.84,0.44
		c-0.28,0.3-0.5,0.68-0.67,1.14s-0.25,0.96-0.25,1.49c0,0.28,0.02,0.53,0.06,0.76C235.3,140.94,235.37,141.21,235.47,141.51z"/>
	<path fill="#33669A" d="M255.24,138.06l0.18-0.4c-0.28,0-0.52,0.02-0.72,0.06c-0.2,0.04-0.43,0.11-0.7,0.2
		c-0.33,0.11-0.55,0.16-0.67,0.16c-0.15,0-0.27-0.05-0.36-0.15s-0.14-0.22-0.14-0.36c0-0.3,0.13-0.6,0.41-0.92
		c0.27-0.31,0.6-0.54,1-0.67c0.52-0.18,1.18-0.33,1.99-0.44c0.81-0.11,1.62-0.17,2.42-0.17c0.9,0,1.71,0.06,2.43,0.17
		c0.72,0.11,1.36,0.3,1.92,0.55c0.56,0.25,1.05,0.56,1.47,0.93c0.42,0.37,0.75,0.8,0.97,1.3c0.23,0.49,0.34,1.02,0.34,1.57
		c0,0.5-0.11,1.06-0.34,1.68c-0.23,0.62-0.54,1.23-0.95,1.82c-0.4,0.59-0.85,1.09-1.33,1.5c-0.56,0.48-1.27,0.88-2.12,1.21
		c-0.86,0.33-1.64,0.5-2.34,0.5c-0.3,0-0.57-0.05-0.79-0.14c-0.23-0.1-0.34-0.21-0.34-0.35c0-0.21,0.09-0.41,0.27-0.6
		s0.51-0.42,0.99-0.69c0.41-0.21,0.8-0.47,1.16-0.76c0.43-0.42,0.75-0.86,0.95-1.33s0.3-1.03,0.3-1.69c0-0.62-0.12-1.15-0.36-1.58
		c-0.24-0.43-0.63-0.82-1.17-1.16l-1.77,5.05l-0.32,0.89c-0.14,0.35-0.32,0.95-0.55,1.8c-0.42,1.46-0.82,2.48-1.19,3.05
		c-0.16,0.25-0.37,0.5-0.63,0.74c-0.41,0.32-0.94,0.6-1.57,0.84c-0.63,0.24-1.18,0.36-1.63,0.36c-0.3,0-0.54-0.08-0.72-0.23
		c-0.18-0.16-0.26-0.37-0.26-0.65c0-0.31,0.09-0.77,0.26-1.37c0.18-0.6,0.54-1.67,1.09-3.22l0.23-0.64l0.25-0.69L255.24,138.06z"/>
	<path fill="#33669A" d="M273.74,147.78v0.05l-0.05-0.05c-0.8,0.83-1.53,1.5-2.2,2.03c-0.67,0.53-1.28,0.92-1.85,1.19
		s-1.08,0.4-1.55,0.4c-0.96,0-1.76-0.29-2.39-0.85s-0.94-1.29-0.94-2.16c0-0.54,0.15-1.18,0.46-1.91c0.31-0.74,0.74-1.46,1.28-2.16
		c0.9-1.15,2.04-2.13,3.41-2.94c1.41-0.83,2.77-1.24,4.08-1.24c1.1,0,2.01,0.2,2.72,0.6c0.71,0.4,1.06,0.9,1.06,1.51
		c0,0.45-0.18,0.92-0.53,1.42c0.46,0,0.76,0.04,0.88,0.13c0.12,0.09,0.18,0.29,0.18,0.61c0-0.03-0.02,0.13-0.07,0.47
		c-0.05,0.75-0.08,1.45-0.08,2.11c0,0.34,0,0.6,0.01,0.77c0.01,0.17,0.03,0.38,0.05,0.6c0.03,0.23,0.05,0.41,0.08,0.55
		c0.07,0.36,0.18,0.71,0.33,1.06c-0.52,0.45-1.01,0.78-1.48,0.99c-0.47,0.21-0.96,0.31-1.45,0.31c-1.33,0-1.99-0.98-1.99-2.94
		C273.71,148.09,273.72,147.91,273.74,147.78z M274.51,145.18l-0.25,0.07c-0.62,0.15-1.07,0.23-1.34,0.23c-0.34,0-0.5-0.08-0.5-0.23
		c0-0.05,0.07-0.19,0.21-0.42c0.48-0.64,0.72-1.25,0.72-1.82c0-0.33-0.06-0.62-0.19-0.89s-0.27-0.4-0.43-0.4
		c-0.14,0-0.35,0.13-0.63,0.39c-0.8,0.77-1.43,1.55-1.9,2.36c-0.47,0.8-0.7,1.52-0.7,2.15c0,0.42,0.1,0.76,0.29,1.04
		c0.19,0.27,0.44,0.41,0.73,0.41c0.25,0,0.72-0.24,1.4-0.71c0.68-0.47,1.45-1.09,2.3-1.87l0.35-0.25L274.51,145.18z"/>
	<path fill="#33669A" d="M288.01,143.29l0.17-0.49c0.22-0.76,0.56-1.34,1.02-1.75c0.29-0.26,0.63-0.47,1.01-0.64
		s0.72-0.25,1.03-0.25c0.57,0,0.85,0.21,0.85,0.64c0,0.21-0.08,0.54-0.23,0.99c-0.16,0.45-0.36,0.95-0.61,1.52s-0.55,1.19-0.89,1.86
		c-0.34,0.68-0.72,1.37-1.13,2.08c-0.75,1.35-1.51,2.49-2.27,3.43c-0.55,0.67-1.11,1.26-1.68,1.78c-0.57,0.52-1.16,0.98-1.79,1.39
		c-0.62,0.41-1.21,0.72-1.77,0.93c-0.55,0.21-1.07,0.31-1.53,0.31c-0.39,0-0.58-0.15-0.58-0.44c0-0.24,0.06-0.52,0.18-0.84
		c0.12-0.33,0.29-0.63,0.5-0.92c0.23-0.27,0.53-0.52,0.88-0.73c0.45-0.27,1.11-0.58,1.98-0.93c-0.52-0.77-0.91-1.37-1.18-1.82
		c-0.27-0.45-0.56-1-0.88-1.67c-0.71-1.48-1.06-2.82-1.06-4.03c0-0.92,0.13-1.67,0.39-2.24c0.23-0.49,0.66-0.84,1.28-1.05
		c0.5-0.17,0.95-0.26,1.34-0.26c0.56,0,0.94,0.19,1.13,0.56c0.19,0.38,0.36,1.25,0.51,2.64c0.16,1.48,0.41,2.94,0.75,4.38
		c0.06,0.22,0.13,0.52,0.21,0.91h0.05c0.23-0.45,0.49-0.99,0.76-1.63c0.09-0.18,0.39-0.85,0.9-2.01
		C287.64,144.29,287.86,143.72,288.01,143.29z"/>
	<path fill="#33669A" d="M297.59,147.62l-0.05,0.23c0,0.13-0.02,0.32-0.05,0.56c-0.04,0.37-0.08,0.67-0.14,0.91
		c-0.06,0.24-0.15,0.43-0.27,0.59c-0.12,0.16-0.28,0.32-0.49,0.5c-0.63,0.51-1.26,0.76-1.9,0.76c-0.52,0-0.9-0.17-1.14-0.5
		s-0.37-0.87-0.37-1.62c0-0.59,0.08-1.32,0.23-2.19c0.15-0.87,0.33-1.65,0.55-2.34l0.1-0.3c0-0.04,0.03-0.14,0.08-0.28
		c0.32-1.03,0.61-1.8,0.88-2.29s0.59-0.9,0.97-1.2c0.33-0.24,0.71-0.35,1.14-0.35c0.61,0,0.98,0.33,1.11,0.98
		c0.12-0.09,0.24-0.2,0.35-0.32c0.25-0.27,0.44-0.44,0.58-0.53c0.14-0.09,0.3-0.13,0.48-0.13c0.74,0,1.11,0.65,1.11,1.94
		c0,0.71-0.09,1.39-0.26,2.05s-0.39,1.2-0.65,1.62c-0.26,0.42-0.52,0.63-0.78,0.63c-0.28,0-0.43-0.47-0.43-1.42
		c0-0.5-0.03-0.89-0.1-1.18c-0.06-0.29-0.17-0.51-0.3-0.67c-0.26,0.42-0.43,1.4-0.5,2.91C297.66,146.84,297.62,147.4,297.59,147.62z
		"/>
	<path fill="#33669A" d="M310.66,139.64c1.28,0,1.92,0.13,1.92,0.4c0,0.3-0.29,0.47-0.86,0.49c-0.7,0.04-1.35,0.21-1.95,0.52
		c-0.6,0.31-1.14,0.74-1.61,1.28c-0.47,0.54-0.83,1.15-1.1,1.82c-0.26,0.68-0.39,1.39-0.39,2.14c0,0.83,0.22,1.49,0.66,2
		c0.44,0.5,1.01,0.76,1.72,0.76c0.65,0,1.23-0.3,1.72-0.89s0.74-1.28,0.74-2.07c0-0.64-0.15-1.25-0.46-1.82s-0.75-1.04-1.33-1.43
		c-0.25-0.17-0.38-0.3-0.38-0.38c0-0.11,0.18-0.27,0.53-0.49c0.4-0.24,0.84-0.43,1.33-0.59c0.49-0.16,0.9-0.24,1.24-0.24
		c0.39,0,0.75,0.09,1.1,0.27c0.35,0.18,0.66,0.43,0.92,0.76s0.47,0.71,0.61,1.14c0.14,0.43,0.21,0.89,0.21,1.37
		c0,0.8-0.17,1.6-0.52,2.39c-0.34,0.79-0.8,1.42-1.35,1.91c-0.72,0.61-1.59,1.12-2.61,1.51c-1.02,0.39-1.99,0.59-2.91,0.59
		c-0.9,0-1.78-0.14-2.67-0.41s-1.58-0.63-2.1-1.08c-0.69-0.61-1.03-1.47-1.03-2.58c0-0.88,0.25-1.76,0.74-2.64
		c0.49-0.88,1.15-1.68,1.99-2.4c0.84-0.72,1.76-1.28,2.77-1.7C308.61,139.85,309.63,139.64,310.66,139.64z"/>
	<path fill="#33669A" d="M323.61,142.58c0.34-0.86,0.63-1.76,0.87-2.69c0.23-0.94,0.35-1.66,0.35-2.16c0-0.14-0.04-0.21-0.13-0.21
		c-0.14,0-0.38,0.27-0.72,0.81s-0.63,1.09-0.86,1.66c-0.5,1.24-0.88,2.26-1.16,3.08c-0.27,0.82-0.46,1.5-0.56,2.05
		c-0.1,0.55-0.16,1.12-0.16,1.7c0,0.49,0.06,0.85,0.19,1.08c0.12,0.23,0.32,0.34,0.6,0.34c0.47,0,1-0.18,1.59-0.55
		s1.11-0.85,1.59-1.45c0.37-0.45,0.66-0.67,0.86-0.67c0.27,0,0.4,0.19,0.4,0.56c0,0.81-0.29,1.61-0.86,2.38
		c-0.58,0.77-1.32,1.4-2.23,1.88c-0.91,0.48-1.83,0.72-2.78,0.72c-1.16,0-2.11-0.32-2.84-0.97c-0.73-0.64-1.1-1.49-1.1-2.53
		c0-0.85,0.21-1.85,0.62-2.99c0.41-1.14,0.96-2.29,1.66-3.45c0.69-1.16,1.45-2.21,2.28-3.15c0.83-0.94,1.64-1.66,2.45-2.16
		c0.5-0.33,1.05-0.49,1.67-0.49c0.46,0,0.89,0.13,1.26,0.38c0.38,0.25,0.67,0.61,0.88,1.06c0.21,0.46,0.31,0.96,0.31,1.51
		c0,1.19-0.26,2.36-0.79,3.5c-0.53,1.14-1.27,2.13-2.21,2.96c-0.45,0.4-0.88,0.72-1.29,0.95c-0.41,0.23-0.77,0.34-1.08,0.34
		c-0.3,0-0.45-0.1-0.45-0.31c0-0.11,0.11-0.33,0.33-0.65c0.3-0.42,0.65-1.05,1.06-1.89c0.03-0.08,0.07-0.17,0.12-0.27
		S323.55,142.75,323.61,142.58z"/>
	<path fill="#33669A" d="M335.98,142.58c0.34-0.86,0.63-1.76,0.87-2.69c0.23-0.94,0.35-1.66,0.35-2.16c0-0.14-0.04-0.21-0.13-0.21
		c-0.14,0-0.38,0.27-0.72,0.81s-0.63,1.09-0.86,1.66c-0.5,1.24-0.88,2.26-1.16,3.08c-0.27,0.82-0.46,1.5-0.56,2.05
		c-0.1,0.55-0.16,1.12-0.16,1.7c0,0.49,0.06,0.85,0.19,1.08c0.12,0.23,0.32,0.34,0.6,0.34c0.47,0,1-0.18,1.59-0.55
		s1.11-0.85,1.59-1.45c0.37-0.45,0.66-0.67,0.86-0.67c0.27,0,0.4,0.19,0.4,0.56c0,0.81-0.29,1.61-0.86,2.38
		c-0.58,0.77-1.32,1.4-2.23,1.88c-0.91,0.48-1.83,0.72-2.78,0.72c-1.16,0-2.11-0.32-2.84-0.97c-0.73-0.64-1.1-1.49-1.1-2.53
		c0-0.85,0.21-1.85,0.62-2.99c0.41-1.14,0.96-2.29,1.66-3.45c0.69-1.16,1.45-2.21,2.28-3.15c0.83-0.94,1.64-1.66,2.45-2.16
		c0.5-0.33,1.05-0.49,1.67-0.49c0.46,0,0.89,0.13,1.26,0.38c0.38,0.25,0.67,0.61,0.88,1.06c0.21,0.46,0.31,0.96,0.31,1.51
		c0,1.19-0.26,2.36-0.79,3.5c-0.53,1.14-1.27,2.13-2.21,2.96c-0.45,0.4-0.88,0.72-1.29,0.95c-0.41,0.23-0.77,0.34-1.08,0.34
		c-0.3,0-0.45-0.1-0.45-0.31c0-0.11,0.11-0.33,0.33-0.65c0.3-0.42,0.65-1.05,1.06-1.89c0.03-0.08,0.07-0.17,0.12-0.27
		S335.92,142.75,335.98,142.58z"/>
	<path fill="#33669A" d="M362.74,146.98l-3.52,3.19c-0.46,0.4-0.82,0.68-1.1,0.83c-0.28,0.15-0.59,0.22-0.92,0.22
		c-0.52,0-0.97-0.17-1.32-0.52c-0.36-0.34-0.54-0.77-0.54-1.27c0-0.31,0.05-0.65,0.16-1.02c0.11-0.37,0.32-0.92,0.64-1.65
		c0.06-0.15,0.12-0.28,0.17-0.39s0.1-0.2,0.14-0.28l-0.05-0.04c-0.83,0.77-1.65,1.59-2.45,2.45c-0.67,0.71-1.2,1.23-1.6,1.58
		c-0.4,0.35-0.75,0.61-1.07,0.79s-0.6,0.26-0.85,0.26c-0.56,0-1-0.19-1.33-0.58c-0.33-0.39-0.49-0.92-0.49-1.58
		c0-0.84,0.41-2.2,1.24-4.09c0.74-1.67,1.31-2.79,1.71-3.36c0.59-0.79,1.27-1.18,2.04-1.18c0.46,0,0.85,0.1,1.15,0.29
		c0.3,0.19,0.46,0.45,0.46,0.76c0,0.57-0.24,1.44-0.73,2.61c-0.19,0.43-0.38,0.92-0.58,1.47l0.05,0.05c0.32-0.31,0.83-0.85,1.53-1.6
		c1.21-1.32,2.13-2.22,2.75-2.7c0.8-0.65,1.53-0.98,2.19-0.98c0.29,0,0.57,0.09,0.84,0.26c0.27,0.17,0.48,0.41,0.64,0.7
		s0.24,0.6,0.24,0.92c0,0.33-0.27,1.16-0.8,2.51c-0.11,0.28-0.2,0.5-0.26,0.66c-0.06,0.16-0.12,0.3-0.17,0.41l0.06,0.05
		c0.12-0.11,0.23-0.2,0.32-0.29c0.09-0.08,0.2-0.17,0.32-0.27c0.12-0.09,0.22-0.18,0.33-0.27c0.23-0.2,0.82-0.72,1.75-1.56
		c0.62-0.61,1.1-1.02,1.46-1.25c0.35-0.22,0.69-0.33,1.02-0.33c0.53,0,0.94,0.16,1.22,0.48s0.42,0.8,0.42,1.43
		c0,0.39-0.07,1-0.21,1.83c-0.12,0.94-0.2,1.68-0.25,2.21c-0.05,0.54-0.07,0.91-0.07,1.12c0,0.16,0.01,0.36,0.03,0.61
		c0.02,0.25,0.06,0.51,0.11,0.79c0.05,0.28,0.12,0.59,0.21,0.93c0.1,0.42,0.17,0.74,0.21,0.98c-0.07,0.27-0.29,0.5-0.68,0.69
		c-0.38,0.19-0.8,0.28-1.25,0.28c-0.71,0-1.37-0.28-1.99-0.84c-0.28-0.26-0.49-0.52-0.64-0.78s-0.26-0.57-0.32-0.93
		s-0.1-0.84-0.1-1.43c0-0.39,0.05-1.19,0.16-2.4l-0.05-0.05L362.74,146.98z"/>
	<path fill="#33669A" d="M377.91,139.64c1.28,0,1.92,0.13,1.92,0.4c0,0.3-0.29,0.47-0.86,0.49c-0.7,0.04-1.35,0.21-1.95,0.52
		c-0.6,0.31-1.14,0.74-1.61,1.28c-0.47,0.54-0.83,1.15-1.1,1.82c-0.26,0.68-0.39,1.39-0.39,2.14c0,0.83,0.22,1.49,0.66,2
		c0.44,0.5,1.01,0.76,1.72,0.76c0.65,0,1.23-0.3,1.72-0.89s0.74-1.28,0.74-2.07c0-0.64-0.15-1.25-0.46-1.82s-0.75-1.04-1.33-1.43
		c-0.25-0.17-0.38-0.3-0.38-0.38c0-0.11,0.18-0.27,0.53-0.49c0.4-0.24,0.84-0.43,1.33-0.59c0.49-0.16,0.9-0.24,1.24-0.24
		c0.39,0,0.75,0.09,1.1,0.27c0.35,0.18,0.66,0.43,0.92,0.76s0.47,0.71,0.61,1.14c0.14,0.43,0.21,0.89,0.21,1.37
		c0,0.8-0.17,1.6-0.52,2.39c-0.34,0.79-0.8,1.42-1.35,1.91c-0.72,0.61-1.59,1.12-2.61,1.51c-1.02,0.39-1.99,0.59-2.91,0.59
		c-0.9,0-1.78-0.14-2.67-0.41s-1.58-0.63-2.1-1.08c-0.69-0.61-1.03-1.47-1.03-2.58c0-0.88,0.25-1.76,0.74-2.64
		c0.49-0.88,1.15-1.68,1.99-2.4c0.84-0.72,1.76-1.28,2.77-1.7C375.85,139.85,376.87,139.64,377.91,139.64z"/>
	<path fill="#33669A" d="M391.31,146.25c-0.22,0.06-0.37,0.09-0.45,0.09c-0.3,0-0.55-0.1-0.74-0.3c-0.19-0.2-0.29-0.45-0.29-0.75
		c0-0.6,0.24-1.37,0.72-2.32c0.48-0.95,0.99-1.65,1.52-2.11c0.39-0.34,0.83-0.51,1.32-0.51c0.38,0,0.71,0.11,0.98,0.34
		c0.28,0.22,0.49,0.55,0.63,0.97c0.15,0.42,0.22,0.91,0.22,1.47c0,1.41-0.33,2.74-1.01,3.97s-1.57,2.22-2.68,2.96s-2.32,1.1-3.6,1.1
		c-0.83,0-1.56-0.17-2.18-0.52c-0.62-0.35-1.1-0.85-1.44-1.51c-0.34-0.66-0.51-1.42-0.51-2.28c0-0.82,0.15-1.74,0.45-2.76
		c0.3-1.02,0.72-2.06,1.26-3.12s1.19-2.09,1.94-3.09c0.79-1.09,1.7-1.93,2.72-2.54c0.71-0.44,1.45-0.66,2.22-0.66
		c0.79,0,1.42,0.21,1.9,0.64c0.47,0.42,0.71,0.99,0.71,1.7c0,0.5-0.22,1.03-0.65,1.58c-0.43,0.55-0.98,1-1.64,1.36
		c-0.66,0.36-1.3,0.53-1.93,0.53c-0.3,0-0.45-0.07-0.45-0.2c0-0.11,0.12-0.3,0.37-0.58c0.41-0.46,0.76-0.98,1.04-1.58
		c0.28-0.6,0.43-1.11,0.43-1.55c0-0.4-0.07-0.6-0.21-0.6c-0.17,0-0.44,0.25-0.8,0.75s-0.68,1.07-0.97,1.72
		c-0.67,1.55-1.19,3.02-1.55,4.41c-0.36,1.39-0.54,2.58-0.54,3.56c0,0.74,0.14,1.36,0.41,1.86c0.27,0.5,0.6,0.76,0.99,0.76
		c0.49,0,0.9-0.24,1.23-0.73C391.05,147.8,391.25,147.12,391.31,146.25z"/>
	<path fill="#33669A" d="M398.45,151.21c-0.39-0.02-0.74-0.18-1.06-0.47c-0.32-0.3-0.54-0.63-0.68-0.99
		c-0.13-0.35-0.2-0.81-0.2-1.37c0-1.25,0.26-2.67,0.79-4.24c0.53-1.58,1.13-2.72,1.8-3.42c0.27-0.3,0.64-0.44,1.11-0.44
		c0.5,0,0.9,0.2,1.21,0.6c0.31,0.4,0.46,0.93,0.46,1.58c0,0.96-0.16,2.09-0.47,3.39s-0.76,2.64-1.33,4.04
		c-0.22,0.56-0.5,0.94-0.83,1.14c-0.22,0.12-0.49,0.18-0.79,0.18H398.45z M400,139.77c-0.81-0.02-1.21-0.45-1.21-1.29
		c0-0.42,0.12-0.9,0.35-1.45c0.24-0.55,0.51-0.96,0.81-1.22c0.16-0.14,0.31-0.25,0.47-0.31s0.36-0.09,0.61-0.09
		c0.43,0,0.75,0.09,0.95,0.28c0.2,0.19,0.3,0.5,0.3,0.93c0,0.54-0.11,1.05-0.32,1.53c-0.21,0.48-0.49,0.87-0.84,1.17
		c-0.35,0.3-0.71,0.45-1.08,0.45H400z"/>
	<path fill="#33669A" d="M410.39,142.58c0.34-0.86,0.63-1.76,0.87-2.69c0.23-0.94,0.35-1.66,0.35-2.16c0-0.14-0.04-0.21-0.13-0.21
		c-0.14,0-0.38,0.27-0.72,0.81s-0.63,1.09-0.86,1.66c-0.5,1.24-0.88,2.26-1.16,3.08c-0.27,0.82-0.46,1.5-0.56,2.05
		c-0.1,0.55-0.16,1.12-0.16,1.7c0,0.49,0.06,0.85,0.19,1.08c0.12,0.23,0.32,0.34,0.6,0.34c0.47,0,1-0.18,1.59-0.55
		s1.11-0.85,1.59-1.45c0.37-0.45,0.66-0.67,0.86-0.67c0.27,0,0.4,0.19,0.4,0.56c0,0.81-0.29,1.61-0.86,2.38
		c-0.58,0.77-1.32,1.4-2.23,1.88c-0.91,0.48-1.83,0.72-2.78,0.72c-1.16,0-2.11-0.32-2.84-0.97c-0.73-0.64-1.1-1.49-1.1-2.53
		c0-0.85,0.21-1.85,0.62-2.99c0.41-1.14,0.96-2.29,1.66-3.45c0.69-1.16,1.45-2.21,2.28-3.15c0.83-0.94,1.64-1.66,2.45-2.16
		c0.5-0.33,1.05-0.49,1.67-0.49c0.46,0,0.89,0.13,1.26,0.38c0.38,0.25,0.67,0.61,0.88,1.06c0.21,0.46,0.31,0.96,0.31,1.51
		c0,1.19-0.26,2.36-0.79,3.5c-0.53,1.14-1.27,2.13-2.21,2.96c-0.45,0.4-0.88,0.72-1.29,0.95c-0.41,0.23-0.77,0.34-1.08,0.34
		c-0.3,0-0.45-0.1-0.45-0.31c0-0.11,0.11-0.33,0.33-0.65c0.3-0.42,0.65-1.05,1.06-1.89c0.03-0.08,0.07-0.17,0.12-0.27
		S410.33,142.75,410.39,142.58z"/>
	<path fill="#33669A" d="M420.27,147.92c0.09,0.46,0.43,0.68,1.01,0.68c0.64,0,1.48-0.33,2.52-1c0.6-0.39,1.01-0.58,1.21-0.58
		c0.26,0,0.5,0.06,0.72,0.18s0.34,0.25,0.34,0.38c0,0.14-0.13,0.31-0.37,0.54c-0.46,0.4-0.98,0.79-1.57,1.18
		c-0.59,0.38-1.17,0.7-1.72,0.96c-0.55,0.25-1.1,0.46-1.65,0.6c-0.55,0.15-1.04,0.22-1.47,0.22c-1.08,0-1.94-0.27-2.58-0.81
		c-0.65-0.54-0.97-1.27-0.97-2.17c0-0.69,0.17-1.47,0.51-2.34c0.34-0.87,0.8-1.68,1.37-2.44c0.68-0.89,1.51-1.63,2.5-2.22
		c1.22-0.71,2.39-1.07,3.51-1.07c0.81,0,1.44,0.23,1.9,0.68c0.46,0.45,0.69,1.07,0.69,1.86c0,0.62-0.18,1.26-0.55,1.92
		c-0.37,0.67-0.91,1.31-1.62,1.92c-0.59,0.52-1.16,0.92-1.72,1.21c-0.56,0.29-1.06,0.43-1.48,0.43
		C420.66,148.05,420.47,148,420.27,147.92z M420.24,147.56c0.4-0.24,0.7-0.47,0.9-0.71c0.46-0.49,0.81-1.06,1.06-1.7
		c0.2-0.42,0.35-0.88,0.46-1.4c0.11-0.52,0.17-1,0.17-1.45c0-0.42-0.1-0.63-0.3-0.63c-0.28,0-0.7,0.54-1.26,1.6
		c-0.34,0.65-0.61,1.29-0.82,1.93c-0.21,0.64-0.32,1.19-0.32,1.66C420.14,147.03,420.17,147.26,420.24,147.56z"/>
	<path fill="#33669A" d="M443.45,147.78v0.05l-0.05-0.05c-0.8,0.83-1.53,1.5-2.2,2.03c-0.67,0.53-1.28,0.92-1.85,1.19
		s-1.08,0.4-1.55,0.4c-0.96,0-1.76-0.29-2.39-0.85s-0.94-1.29-0.94-2.16c0-0.54,0.15-1.18,0.46-1.91c0.31-0.74,0.74-1.46,1.28-2.16
		c0.9-1.15,2.04-2.13,3.41-2.94c1.41-0.83,2.77-1.24,4.08-1.24c1.1,0,2.01,0.2,2.72,0.6c0.71,0.4,1.06,0.9,1.06,1.51
		c0,0.45-0.18,0.92-0.53,1.42c0.46,0,0.76,0.04,0.88,0.13c0.12,0.09,0.18,0.29,0.18,0.61c0-0.03-0.02,0.13-0.07,0.47
		c-0.05,0.75-0.08,1.45-0.08,2.11c0,0.34,0,0.6,0.01,0.77c0.01,0.17,0.03,0.38,0.05,0.6c0.03,0.23,0.05,0.41,0.08,0.55
		c0.07,0.36,0.18,0.71,0.33,1.06c-0.52,0.45-1.01,0.78-1.48,0.99c-0.47,0.21-0.96,0.31-1.45,0.31c-1.33,0-1.99-0.98-1.99-2.94
		C443.43,148.09,443.44,147.91,443.45,147.78z M444.23,145.18l-0.25,0.07c-0.62,0.15-1.07,0.23-1.34,0.23c-0.34,0-0.5-0.08-0.5-0.23
		c0-0.05,0.07-0.19,0.21-0.42c0.48-0.64,0.72-1.25,0.72-1.82c0-0.33-0.06-0.62-0.19-0.89s-0.27-0.4-0.43-0.4
		c-0.14,0-0.35,0.13-0.63,0.39c-0.8,0.77-1.43,1.55-1.9,2.36c-0.47,0.8-0.7,1.52-0.7,2.15c0,0.42,0.1,0.76,0.29,1.04
		c0.19,0.27,0.44,0.41,0.73,0.41c0.25,0,0.72-0.24,1.4-0.71c0.68-0.47,1.45-1.09,2.3-1.87l0.35-0.25L444.23,145.18z"/>
	<path fill="#33669A" d="M455.61,143.64l0.4-0.66c0.38-0.59,0.73-1.08,1.05-1.47c0.32-0.39,0.61-0.68,0.86-0.86
		c0.25-0.18,0.55-0.33,0.89-0.45c0.28-0.1,0.59-0.15,0.93-0.15c0.65,0,1.23,0.17,1.74,0.51c0.5,0.34,0.89,0.83,1.16,1.47
		s0.41,1.37,0.41,2.2c0,1.19-0.3,2.34-0.91,3.43c-0.61,1.1-1.4,1.98-2.39,2.66c-0.99,0.67-2,1.01-3.05,1.01
		c-0.61,0-1.12-0.11-1.53-0.34c-0.41-0.23-0.79-0.62-1.13-1.17l-0.09,0.19l-0.08,0.25c-0.56,1.59-1,2.75-1.33,3.5
		c-0.33,0.75-0.62,1.21-0.86,1.37c-0.19,0.16-0.41,0.24-0.66,0.24c-0.49,0-0.87-0.21-1.15-0.64s-0.41-1.02-0.41-1.79
		c0-0.83,0.1-1.84,0.31-3.01c0.21-1.17,0.49-2.36,0.86-3.58c0.37-1.21,0.77-2.32,1.22-3.31c0.29-0.61,0.61-1.14,0.96-1.59
		c0.35-0.46,0.69-0.79,1-0.99c0.23-0.12,0.48-0.18,0.75-0.18c0.39,0,0.7,0.09,0.91,0.29s0.32,0.46,0.32,0.81
		c0,0.3-0.04,0.63-0.1,0.99c-0.05,0.35-0.1,0.76-0.14,1.21L455.61,143.64z M454.64,148.49c0.24,0.62,0.7,0.93,1.37,0.93
		c0.47,0,0.91-0.19,1.32-0.56c0.41-0.38,0.74-0.88,0.98-1.53s0.37-1.32,0.37-2.02c0-0.56-0.05-1.05-0.15-1.46
		c-0.1-0.41-0.21-0.61-0.33-0.61c-0.09,0-0.31,0.2-0.66,0.6c-0.35,0.4-0.71,0.87-1.06,1.4c-0.72,1.03-1.27,1.94-1.64,2.73
		C454.75,148.18,454.68,148.35,454.64,148.49z"/>
	<path fill="#33669A" d="M469.8,143.64l0.4-0.66c0.38-0.59,0.73-1.08,1.05-1.47c0.32-0.39,0.61-0.68,0.86-0.86
		c0.25-0.18,0.55-0.33,0.89-0.45c0.28-0.1,0.59-0.15,0.93-0.15c0.65,0,1.23,0.17,1.74,0.51c0.5,0.34,0.89,0.83,1.16,1.47
		s0.41,1.37,0.41,2.2c0,1.19-0.3,2.34-0.91,3.43c-0.61,1.1-1.4,1.98-2.39,2.66c-0.99,0.67-2,1.01-3.05,1.01
		c-0.61,0-1.12-0.11-1.53-0.34c-0.41-0.23-0.79-0.62-1.13-1.17l-0.09,0.19l-0.08,0.25c-0.56,1.59-1,2.75-1.33,3.5
		c-0.33,0.75-0.62,1.21-0.86,1.37c-0.19,0.16-0.41,0.24-0.66,0.24c-0.49,0-0.87-0.21-1.15-0.64s-0.41-1.02-0.41-1.79
		c0-0.83,0.1-1.84,0.31-3.01c0.21-1.17,0.49-2.36,0.86-3.58c0.37-1.21,0.77-2.32,1.22-3.31c0.29-0.61,0.61-1.14,0.96-1.59
		c0.35-0.46,0.69-0.79,1-0.99c0.23-0.12,0.48-0.18,0.75-0.18c0.39,0,0.7,0.09,0.91,0.29s0.32,0.46,0.32,0.81
		c0,0.3-0.04,0.63-0.1,0.99c-0.05,0.35-0.1,0.76-0.14,1.21L469.8,143.64z M468.82,148.49c0.24,0.62,0.7,0.93,1.37,0.93
		c0.47,0,0.91-0.19,1.32-0.56c0.41-0.38,0.74-0.88,0.98-1.53s0.37-1.32,0.37-2.02c0-0.56-0.05-1.05-0.15-1.46
		c-0.1-0.41-0.21-0.61-0.33-0.61c-0.09,0-0.31,0.2-0.66,0.6c-0.35,0.4-0.71,0.87-1.06,1.4c-0.72,1.03-1.27,1.94-1.64,2.73
		C468.93,148.18,468.87,148.35,468.82,148.49z"/>
</g>
</svg>
