<?xml version="1.0" encoding="utf-8"?>
<!-- Generator: Adobe Illustrator 24.1.1, SVG Export Plug-In . SVG Version: 6.00 Build 0)  -->
<svg version="1.1" baseProfile="basic" id="Layer_1"
	 xmlns="http://www.w3.org/2000/svg" xmlns:xlink="http://www.w3.org/1999/xlink" x="0px" y="0px" viewBox="0 0 38.93 53.94"
	 xml:space="preserve">
<g>
	<path fill="#257A95" d="M3.88,47.21v2.88c0,0,8.35,0.9,9.77,1.08c1.41,0.18,5.72,1.08,10.67,0.27S36,49.99,36,49.99v-3.38
		l-11.96-1.49c0,0-2.9-0.53-5.61-0.47c-2.85,0.07-5.23,0.8-5.23,0.8S3.82,47.11,3.88,47.21z"/>
	<path fill="#68BFC2" d="M3.33,19.14v28.25l0.56-0.09v-0.09c0.2-0.03,0.41-0.06,0.64-0.09v0.08l0.45-0.07v-0.07
		c0.29-0.04,0.59-0.09,0.9-0.13v0.05l0.45-0.07v-0.04c0.26-0.04,0.53-0.08,0.79-0.11v0.02l0.45-0.07v-0.01
		c0.18-0.03,0.37-0.05,0.55-0.08l5.97-1V5.11L3.33,19.14z M4.52,46.1l-0.64,0.16v-2.58c0.2-0.06,0.41-0.11,0.64-0.18V46.1z
		 M4.52,42.52l-0.64,0.25v-2.61c0.2-0.08,0.41-0.17,0.64-0.26V42.52z M4.52,38.94l-0.64,0.33v-2.63c0.2-0.11,0.41-0.22,0.64-0.34
		V38.94z M4.52,35.36l-0.64,0.41v-2.65c0.2-0.13,0.41-0.28,0.64-0.42V35.36z M4.52,31.78l-0.64,0.5v-2.67
		c0.2-0.16,0.41-0.33,0.64-0.51V31.78z M4.52,28.2l-0.64,0.58V26.1c0.2-0.19,0.41-0.38,0.64-0.59V28.2z M4.52,24.61l-0.64,0.67
		v-2.69c0.2-0.21,0.41-0.44,0.64-0.67V24.61z M4.52,21.03l-0.64,0.75v-2.7c0.2-0.24,0.41-0.49,0.64-0.76V21.03z M5.87,45.76
		l-0.9,0.23v-2.6c0.29-0.08,0.59-0.16,0.9-0.25V45.76z M5.87,42l-0.9,0.35v-2.63c0.29-0.12,0.59-0.24,0.9-0.36V42z M5.87,38.25
		l-0.9,0.47v-2.65c0.29-0.15,0.59-0.31,0.9-0.48V38.25z M5.87,34.49l-0.9,0.58v-2.67c0.29-0.19,0.59-0.39,0.9-0.6V34.49z
		 M5.87,30.73l-0.9,0.7v-2.68c0.29-0.23,0.59-0.47,0.9-0.72V30.73z M5.87,26.97l-0.9,0.82v-2.7c0.29-0.27,0.59-0.55,0.9-0.83V26.97z
		 M5.87,23.2l-0.9,0.94v-2.71c0.29-0.31,0.59-0.62,0.9-0.95V23.2z M5.87,19.44l-0.9,1.06v-2.72c0.29-0.34,0.59-0.7,0.9-1.07V19.44z
		 M7.11,45.44l-0.79,0.2v-2.62c0.26-0.07,0.53-0.14,0.79-0.22V45.44z M7.11,41.52l-0.79,0.31v-2.65c0.26-0.1,0.53-0.21,0.79-0.32
		V41.52z M7.11,37.6l-0.79,0.41v-2.67c0.26-0.14,0.53-0.28,0.79-0.42V37.6z M7.11,33.68L6.32,34.2v-2.69
		c0.26-0.17,0.53-0.35,0.79-0.53V33.68z M7.11,29.76l-0.79,0.62v-2.7c0.26-0.21,0.53-0.42,0.79-0.63V29.76z M7.11,25.83l-0.79,0.73
		v-2.72c0.26-0.24,0.53-0.49,0.79-0.74V25.83z M7.11,21.9l-0.79,0.83v-2.73c0.26-0.28,0.53-0.56,0.79-0.84V21.9z M7.11,17.97
		l-0.79,0.94v-2.74c0.26-0.31,0.53-0.63,0.79-0.95V17.97z M8.5,45.08l-0.94,0.24v-2.64c0.31-0.08,0.62-0.17,0.94-0.26V45.08z
		 M8.5,40.98l-0.94,0.36v-2.67c0.31-0.12,0.62-0.25,0.94-0.38V40.98z M8.5,36.88l-0.94,0.49v-2.69c0.31-0.17,0.62-0.33,0.94-0.5
		V36.88z M8.5,32.78l-0.94,0.61v-2.71c0.31-0.21,0.62-0.41,0.94-0.62V32.78z M8.5,28.67l-0.94,0.73v-2.72
		c0.31-0.25,0.62-0.5,0.94-0.75V28.67z M8.5,24.56l-0.94,0.86v-2.74c0.31-0.29,0.62-0.58,0.94-0.87V24.56z M8.5,20.45l-0.94,0.98
		v-2.75c0.31-0.33,0.62-0.66,0.94-1V20.45z M8.5,16.33l-0.94,1.11v-2.76c0.31-0.37,0.62-0.75,0.94-1.12V16.33z M10.17,44.65
		l-1.22,0.31V42.3c0.41-0.11,0.82-0.22,1.22-0.33V44.65z M10.17,40.34l-1.22,0.47v-2.69c0.41-0.16,0.82-0.33,1.22-0.49V40.34z
		 M10.17,36.02l-1.22,0.63v-2.71c0.41-0.22,0.82-0.43,1.22-0.65V36.02z M10.17,31.7l-1.22,0.79v-2.72c0.41-0.27,0.82-0.54,1.22-0.81
		V31.7z M10.17,27.37l-1.22,0.95v-2.74c0.41-0.32,0.82-0.65,1.22-0.97V27.37z M10.17,23.04l-1.22,1.11V21.4
		c0.41-0.38,0.82-0.76,1.22-1.13V23.04z M10.17,18.71l-1.22,1.27l0-2.68c0,0,0.81-0.95,1.21-1.38V18.71z M10.17,14.37L8.95,15.8
		l0.03-2.82c0,0,0.79-0.94,1.19-1.42V14.37z M11.83,44.23l-1.22,0.31v-2.69c0.42-0.11,0.82-0.22,1.22-0.33V44.23z M11.83,39.69
		l-1.22,0.47v-2.71c0.42-0.17,0.82-0.33,1.22-0.49V39.69z M11.83,35.16l-1.22,0.63v-2.73c0.42-0.22,0.82-0.44,1.22-0.65V35.16z
		 M11.83,30.62l-1.22,0.79v-2.75c0.42-0.28,0.82-0.55,1.22-0.81V30.62z M11.83,26.07l-1.22,0.95v-2.76
		c0.42-0.33,0.82-0.66,1.22-0.97V26.07z M11.83,21.52l-1.22,1.11v-2.78c0.42-0.39,0.82-0.77,1.22-1.13V21.52z M11.83,16.96
		l-1.22,1.27v-2.8c0.42-0.44,0.83-0.88,1.22-1.29V16.96z M11.83,12.4l-1.22,1.44v-2.81c0.42-0.5,0.83-0.99,1.22-1.46V12.4z
		 M13.49,43.8l-1.21,0.31V41.4c0.43-0.12,0.83-0.22,1.21-0.33V43.8z M13.49,39.05l-1.21,0.47v-2.73c0.43-0.17,0.83-0.33,1.21-0.48
		V39.05z M13.49,34.3l-1.21,0.62v-2.75c0.43-0.23,0.83-0.44,1.21-0.64V34.3z M13.49,29.54l-1.21,0.78v-2.77
		c0.43-0.28,0.83-0.55,1.21-0.8V29.54z M13.49,24.78l-1.21,0.94v-2.79c0.43-0.34,0.83-0.66,1.21-0.96V24.78z M13.49,20.01l-1.21,1.1
		V18.3c0.43-0.4,0.83-0.77,1.21-1.12V20.01z M13.49,15.23l-1.21,1.26v-2.82c0.43-0.46,0.83-0.89,1.21-1.28V15.23z M13.49,10.45
		l-1.21,1.42V9.03c0.43-0.51,0.83-1,1.21-1.44V10.45z"/>
	<path fill="#68BFC2" d="M25.63,4.84l0.11,40.76l5.97,1c0.19,0.03,0.37,0.05,0.55,0.08v0.01l0.45,0.07v-0.02
		c0.27,0.04,0.53,0.08,0.79,0.11v0.04l0.45,0.07v-0.05c0.31,0.04,0.61,0.09,0.9,0.13v0.07l0.45,0.07v-0.08
		c0.22,0.03,0.43,0.06,0.64,0.09v0.09l0.56,0.09V19.14L25.63,4.84z M35.3,43.51c0.22,0.06,0.43,0.12,0.64,0.18v2.58L35.3,46.1V43.51
		z M35.3,39.91c0.22,0.09,0.43,0.18,0.64,0.26v2.61l-0.64-0.25V39.91z M35.3,36.3c0.22,0.12,0.43,0.23,0.64,0.34v2.63l-0.64-0.33
		V36.3z M35.3,32.7c0.22,0.15,0.44,0.29,0.64,0.42v2.65l-0.64-0.41V32.7z M35.3,29.1c0.22,0.18,0.44,0.35,0.64,0.51v2.67l-0.64-0.5
		V29.1z M35.3,25.51c0.22,0.21,0.44,0.4,0.64,0.59v2.68L35.3,28.2V25.51z M35.3,21.91c0.22,0.24,0.44,0.46,0.64,0.67v2.69
		l-0.64-0.67V21.91z M35.3,18.32c0.22,0.27,0.44,0.52,0.64,0.76v2.7l-0.64-0.75V18.32z M33.96,43.14c0.31,0.08,0.61,0.17,0.9,0.25
		v2.6l-0.9-0.23V43.14z M33.96,39.36c0.31,0.13,0.61,0.25,0.9,0.36v2.63L33.96,42V39.36z M33.96,35.58c0.31,0.17,0.61,0.33,0.9,0.48
		v2.65l-0.9-0.47V35.58z M33.96,31.81c0.31,0.21,0.61,0.41,0.9,0.6v2.67l-0.9-0.58V31.81z M33.96,28.03
		c0.31,0.25,0.61,0.49,0.9,0.72v2.68l-0.9-0.7V28.03z M33.96,24.26c0.31,0.29,0.61,0.57,0.9,0.83v2.7l-0.9-0.82V24.26z M33.96,20.48
		c0.31,0.33,0.61,0.65,0.9,0.95v2.71l-0.9-0.94V20.48z M33.96,16.71c0.31,0.37,0.61,0.73,0.9,1.07v2.72l-0.9-1.06V16.71z
		 M32.71,42.8c0.27,0.07,0.53,0.15,0.79,0.22v2.62l-0.79-0.2V42.8z M32.71,38.86c0.27,0.11,0.53,0.22,0.79,0.32v2.65l-0.79-0.31
		V38.86z M32.71,34.92c0.27,0.14,0.53,0.28,0.79,0.42v2.67l-0.79-0.41V34.92z M32.71,30.98c0.27,0.18,0.53,0.36,0.79,0.53v2.69
		l-0.79-0.52V30.98z M32.71,27.04c0.27,0.21,0.53,0.43,0.79,0.63v2.7l-0.79-0.62V27.04z M32.71,23.1c0.27,0.25,0.53,0.5,0.79,0.74
		v2.72l-0.79-0.73V23.1z M32.71,19.16c0.27,0.29,0.53,0.57,0.79,0.84v2.73l-0.79-0.83V19.16z M32.71,15.22
		c0.27,0.32,0.53,0.64,0.79,0.95v2.74l-0.79-0.94V15.22z M31.33,42.42c0.32,0.09,0.63,0.17,0.94,0.26v2.64l-0.94-0.24V42.42z
		 M31.33,38.3c0.32,0.13,0.63,0.25,0.94,0.38v2.67l-0.94-0.36V38.3z M31.33,34.18c0.32,0.17,0.63,0.33,0.94,0.5v2.69l-0.94-0.49
		V34.18z M31.33,30.06c0.32,0.21,0.63,0.42,0.94,0.62v2.71l-0.94-0.61V30.06z M31.33,25.94c0.32,0.25,0.63,0.5,0.94,0.75v2.72
		l-0.94-0.73V25.94z M31.33,21.81c0.32,0.29,0.63,0.58,0.94,0.87v2.74l-0.94-0.86V21.81z M31.33,17.69c0.32,0.33,0.63,0.67,0.94,1
		v2.75l-0.94-0.98V17.69z M31.33,13.56c0.32,0.38,0.63,0.75,0.94,1.12v2.76l-0.94-1.11V13.56z M29.66,41.97
		c0.4,0.11,0.81,0.22,1.22,0.33v2.67l-1.22-0.31V41.97z M29.66,37.64c0.4,0.16,0.81,0.32,1.22,0.49v2.69l-1.22-0.47V37.64z
		 M29.66,33.3c0.4,0.21,0.81,0.43,1.22,0.65v2.71l-1.22-0.63V33.3z M29.66,28.96c0.4,0.27,0.81,0.54,1.22,0.81v2.72l-1.22-0.79
		V28.96z M29.66,24.61c0.4,0.32,0.81,0.64,1.22,0.97v2.74l-1.22-0.95V24.61z M29.66,20.27c0.4,0.37,0.81,0.75,1.22,1.13v2.76
		l-1.22-1.11V20.27z M29.66,15.92c0.4,0.43,1.21,1.38,1.21,1.38l0,2.68l-1.22-1.27V15.92z M29.66,11.57
		c0.4,0.48,1.19,1.42,1.19,1.42l0.03,2.82l-1.22-1.44V11.57z M27.99,41.52c0.39,0.11,0.8,0.22,1.22,0.33v2.69l-1.22-0.31V41.52z
		 M27.99,36.97c0.39,0.16,0.8,0.32,1.22,0.49v2.71l-1.22-0.47V36.97z M27.99,32.41c0.39,0.21,0.8,0.43,1.22,0.65v2.73l-1.22-0.63
		V32.41z M27.99,27.85c0.39,0.26,0.8,0.53,1.22,0.81v2.75l-1.22-0.79V27.85z M27.99,23.29c0.39,0.31,0.8,0.64,1.22,0.97v2.76
		l-1.22-0.95V23.29z M27.99,18.72c0.39,0.36,0.8,0.74,1.22,1.13v2.78l-1.22-1.11V18.72z M27.99,14.15c0.39,0.42,0.8,0.85,1.22,1.29
		v2.8l-1.22-1.27V14.15z M27.99,9.57c0.39,0.47,0.8,0.96,1.22,1.46v2.81l-1.22-1.44V9.57z M26.34,41.07
		c0.37,0.1,0.78,0.21,1.21,0.33v2.71l-1.21-0.31V41.07z M26.34,36.31c0.37,0.15,0.78,0.31,1.21,0.48v2.73l-1.21-0.47V36.31z
		 M26.34,31.53c0.37,0.2,0.78,0.41,1.21,0.64v2.75l-1.21-0.62V31.53z M26.34,26.75c0.37,0.25,0.78,0.52,1.21,0.8v2.77l-1.21-0.78
		V26.75z M26.34,21.97c0.37,0.3,0.78,0.62,1.21,0.96v2.79l-1.21-0.94V21.97z M26.34,17.18c0.37,0.35,0.78,0.72,1.21,1.12v2.81
		l-1.21-1.1V17.18z M26.34,12.39c0.37,0.4,0.78,0.83,1.21,1.28v2.82l-1.21-1.26V12.39z M26.34,7.59c0.37,0.45,0.78,0.93,1.21,1.44
		v2.84l-1.21-1.42V7.59z"/>
	<path fill="#257A95" d="M14.1,44.18l11.58,0.16L25.47,3.55c0,0-0.97-2.16-5.41-2.16c-3.82,0-5.84,2.43-5.84,2.43L14.1,44.18z"/>
	<g>
		<path fill="#AEDBDD" d="M20.07,3.1c-2.52,0-4.56,0.99-5.84,1.84l0,2.48c0.89-0.72,3.03-2.16,5.85-2.16c3.23,0,4.85,1.21,5.42,1.77
			l-0.01-2.52C24.39,3.8,22.65,3.1,20.07,3.1z"/>
		<path fill="#AEDBDD" d="M20.07,7.47c-2.53,0-4.58,0.94-5.86,1.73l0,2.44c0.9-0.67,3.05-2.01,5.86-2.01c3.25,0,4.87,1.12,5.44,1.64
			L25.5,8.77C24.42,8.12,22.69,7.47,20.07,7.47z"/>
		<path fill="#AEDBDD" d="M20.08,11.84c-2.54,0-4.59,0.88-5.87,1.61l0,2.4c0.92-0.63,3.08-1.86,5.87-1.86c3.26,0,4.88,1.03,5.46,1.5
			l-0.01-2.45C24.46,12.45,22.72,11.84,20.08,11.84z"/>
		<path fill="#AEDBDD" d="M20.09,16.22c-2.55,0-4.61,0.82-5.88,1.5l0,2.36c0.93-0.59,3.08-1.71,5.89-1.71
			c3.27,0,4.89,0.93,5.48,1.37l-0.01-2.4C24.49,16.79,22.75,16.22,20.09,16.22z"/>
		<path fill="#AEDBDD" d="M20.09,20.59c-2.56,0-4.63,0.76-5.9,1.38l0,2.33c0.95-0.54,3.1-1.56,5.9-1.56c3.27,0,4.9,0.83,5.49,1.23
			l-0.01-2.36C24.53,21.11,22.79,20.59,20.09,20.59z"/>
		<path fill="#AEDBDD" d="M20.1,24.96c-2.57,0-4.65,0.7-5.91,1.26l0,2.3c0.96-0.5,3.12-1.41,5.91-1.41c3.26,0,4.91,0.73,5.51,1.09
			l-0.01-2.32C24.56,25.44,22.82,24.96,20.1,24.96z"/>
		<path fill="#AEDBDD" d="M20.11,29.33c-2.59,0-4.67,0.64-5.92,1.14l0,2.27c0.98-0.45,3.14-1.26,5.93-1.26
			c3.25,0,4.91,0.63,5.53,0.95l-0.01-2.29C24.6,29.76,22.86,29.33,20.11,29.33z"/>
		<path fill="#AEDBDD" d="M20.11,33.71c-2.6,0-4.7,0.57-5.94,1.02l0,2.25c1-0.4,3.18-1.11,5.94-1.11c3.24,0,4.9,0.54,5.55,0.81
			l-0.01-2.25C24.65,34.08,22.91,33.71,20.11,33.71z"/>
		<g>
			<path fill="#AEDBDD" d="M20.12,38.08c-2.61,0-4.72,0.51-5.95,0.89l0,2.23c1.02-0.35,3.2-0.97,5.95-0.97
				c3.23,0,4.9,0.44,5.56,0.67l-0.01-2.23C24.69,38.4,22.96,38.08,20.12,38.08z"/>
		</g>
		<g>
			<path fill="#AEDBDD" d="M20.13,42.45c-2.63,0-4.74,0.44-5.96,0.77l0,2.21c1.04-0.3,3.05-0.61,5.8-0.61c3.2,0,5.01,0.54,5.7,0.73
				v-2.37C24.71,42.96,23.01,42.45,20.13,42.45z"/>
		</g>
	</g>
</g>
</svg>
